<svg width="105" height="105" viewBox="0 0 105 105" fill="none" xmlns="http://www.w3.org/2000/svg">
<rect x="0.850555" y="0.223083" width="104" height="104" rx="23" fill="#151517"/>
<path d="M38.7006 42.5731V45.0731C38.7006 45.7065 38.4339 46.0898 37.9006 46.2231L22.3006 50.9731L37.9006 55.6731C38.4339 55.8065 38.7006 56.1898 38.7006 56.8231V59.3231C38.7006 59.9898 38.3673 60.1898 37.7006 59.9231L19.3006 53.6231C18.6006 53.3898 18.2506 52.8731 18.2506 52.0731V49.8731C18.2506 49.0731 18.6006 48.5565 19.3006 48.3231L37.7006 41.9731C38.3673 41.7065 38.7006 41.9065 38.7006 42.5731ZM47.7479 67.2231H44.8979C44.1979 67.2231 43.9645 66.9231 44.1979 66.3231C44.9312 64.4565 46.7979 59.4231 49.7979 51.2231C52.7979 43.0231 54.6812 37.9398 55.4479 35.9731C55.7145 35.3731 56.0979 35.0731 56.5979 35.0731H59.4979C60.1312 35.0731 60.3479 35.3898 60.1479 36.0231L48.8979 66.3231C48.6979 66.9231 48.3145 67.2231 47.7479 67.2231ZM65.8627 45.0731V42.5731C65.8627 41.9065 66.196 41.7065 66.8627 41.9731L85.2627 48.3231C85.9627 48.5565 86.3127 49.0731 86.3127 49.8731V52.0731C86.3127 52.8731 85.9627 53.3898 85.2627 53.6231L66.8627 59.9231C66.196 60.1898 65.8627 59.9898 65.8627 59.3231V56.8231C65.8627 56.1898 66.1294 55.8065 66.6627 55.6731L82.2127 50.9731L66.6627 46.2231C66.1294 46.0898 65.8627 45.7065 65.8627 45.0731Z" fill="url(#paint0_linear_790_10)"/>
<defs>
<linearGradient id="paint0_linear_790_10" x1="14.8506" y1="52.2231" x2="87.5172" y2="52.2231" gradientUnits="userSpaceOnUse">
<stop stop-color="#901ABA"/>
<stop offset="1" stop-color="#068E82"/>
</linearGradient>
</defs>
</svg>
